<svg xmlns="http://www.w3.org/2000/svg" xmlns:xlink="http://www.w3.org/1999/xlink" version="1.1" class="icon-twitter" x="0" y="0" width="36" height="36" viewBox="0 0 49.65 49.65" xml:space="preserve" enable-background="new 0 0 49.652 49.652">
	<title>Twitter</title>
	<path d="M24.83 0C11.14 0 0 11.14 0 24.83c0 13.69 11.14 24.83 24.83 24.83 13.69 0 24.83-11.14 24.83-24.83C49.65 11.14 38.52 0 24.83 0zM35.9 19.14c0.01 0.25 0.02 0.49 0.02 0.74 0 7.55-5.75 16.26-16.26 16.26 -3.23 0-6.23-0.94-8.76-2.56 0.45 0.05 0.9 0.08 1.36 0.08 2.68 0 5.14-0.91 7.1-2.45 -2.5-0.05-4.61-1.7-5.34-3.97 0.35 0.07 0.71 0.1 1.07 0.1 0.52 0 1.03-0.07 1.51-0.2 -2.61-0.52-4.58-2.83-4.58-5.6 0-0.02 0-0.05 0-0.07 0.77 0.43 1.65 0.69 2.59 0.71 -1.53-1.02-2.54-2.77-2.54-4.75 0-1.05 0.28-2.03 0.77-2.87 2.82 3.46 7.03 5.73 11.78 5.97 -0.1-0.42-0.15-0.85-0.15-1.3 0-3.15 2.56-5.71 5.71-5.71 1.64 0 3.13 0.69 4.17 1.8 1.3-0.26 2.52-0.73 3.63-1.39 -0.43 1.34-1.33 2.45-2.52 3.16 1.16-0.14 2.26-0.44 3.28-0.9C37.99 17.33 37.02 18.34 35.9 19.14z"/>
</svg>